 http://www.imdb.com/title/tt1388411/
 
http://www.moviemeter.nl/film/56838

User Rating:7.0/10 - 137 votes

Nederland
Thriller
110 minuten

Geregisseerd door Will Koopman
Met Linda de Mol, Ariane Schluter en Huub Stapel

De alleenstaande Maria Vos (Linda de Mol) wordt door een onbekende met de dood bedreigd. Zij vlucht met haar kinderen naar haar voormalige ouderlijk huis, waar ze onderduikt bij haar oudere zus Ans (Ariane Schluter). Terwijl het winterse verblijf in de villa aan zee Maria confronteert met traumatische jeugd herinneringen en haar omgeving steeds meer aan haar geestelijke gezondheid begint te twijfelen, komt haar belager steeds dichterbij...

Info:

Cover bijgesloten.

General
Complete name                    : Terug naar de Kust-AC3-5,1-DVDRip-2009.avi
Format                           : AVI
Format/Info                      : Audio Video Interleave
File size                        : 1.36 GiB
Duration                         : 1h 45mn
Overall bit rate                 : 1 854 Kbps
Writing application              : VirtualDubMod 1.5.4.1 (build 2178/release)
Writing library                  : VirtualDubMod build 2178/release

Video
ID                               : 0
Format                           : MPEG-4 Visual
Format profile                   : Simple@L3
Format settings, BVOP            : No
Format settings, QPel            : No
Format settings, GMC             : No warppoints
Format settings, Matrix          : Default (H.263)
Codec ID                         : XVID
Codec ID/Hint                    : XviD
Duration                         : 1h 45mn
Bit rate                         : 1 460 Kbps
Width                            : 704 pixels
Height                           : 400 pixels
Display aspect ratio             : 16:9
Frame rate                       : 25.000 fps
Resolution                       : 8 bits
Colorimetry                      : 4:2:0
Scan type                        : Progressive
Bits/(Pixel*Frame)               : 0.207
Stream size                      : 1.07 GiB (79%)
Writing library                  : XviD 1.1.2 (UTC 2006-11-01)

Audio
ID                               : 1
Format                           : AC-3
Format/Info                      : Audio Coding 3
Codec ID                         : 2000
Duration                         : 1h 45mn
Bit rate mode                    : Constant
Bit rate                         : 384 Kbps
Channel(s)                       : 6 channels
Channel positions                : Front: L C R, Surround: L R, LFE
Sampling rate                    : 48.0 KHz
Stream size                      : 289 MiB (21%)
Alignment                        : Split accross interleaves
Interleave, duration             : 40 ms (1.00 video frame)
Interleave, preload duration     : 500 ms

Veel plezier met deze film.